<?xml version="1.0" encoding="UTF-8" standalone="no"?>
<svg
   xmlns:dc="http://purl.org/dc/elements/1.1/"
   xmlns:cc="http://creativecommons.org/ns#"
   xmlns:rdf="http://www.w3.org/1999/02/22-rdf-syntax-ns#"
   xmlns:svg="http://www.w3.org/2000/svg"
   xmlns="http://www.w3.org/2000/svg"
   xmlns:sodipodi="http://sodipodi.sourceforge.net/DTD/sodipodi-0.dtd"
   xmlns:inkscape="http://www.inkscape.org/namespaces/inkscape"
   version="1.1"
   width="208"
   height="92"
   id="svg2"
   sodipodi:docname="carC.svg"
   inkscape:version="1.0.2-2 (e86c870879, 2021-01-15)">
  <sodipodi:namedview
     pagecolor="#ffffff"
     bordercolor="#666666"
     borderopacity="1"
     objecttolerance="10"
     gridtolerance="10"
     guidetolerance="10"
     inkscape:pageopacity="0"
     inkscape:pageshadow="2"
     inkscape:window-width="1540"
     inkscape:window-height="859"
     id="namedview42"
     showgrid="false"
     inkscape:zoom="1.8085616"
     inkscape:cx="197.77261"
     inkscape:cy="111.31969"
     inkscape:window-x="0"
     inkscape:window-y="0"
     inkscape:window-maximized="0"
     inkscape:current-layer="svg2"
     inkscape:document-rotation="0" />
  <defs
     id="defs4">
    <filter
       style="color-interpolation-filters:sRGB;"
       inkscape:label="Greyscale"
       id="filter1480">
      <feColorMatrix
         values="3.61446 0.361446 1.86747 0 0 3.61446 0.361446 1.86747 0 0 3.61446 0.361446 1.86747 0 0 0 0 0 1 0 "
         id="feColorMatrix1478" />
    </filter>
  </defs>
  <metadata
     id="metadata7">
    <rdf:RDF>
      <cc:Work
         rdf:about="">
        <dc:format>image/svg+xml</dc:format>
        <dc:type
           rdf:resource="http://purl.org/dc/dcmitype/StillImage" />
        <dc:title></dc:title>
      </cc:Work>
    </rdf:RDF>
  </metadata>
  <g
     transform="matrix(-1,0,0,1,514.48562,-461.09838)"
     id="layer1"
     style="filter:url(#filter1480)">
    <g
       transform="translate(162.85714,148.57143)"
       id="g3251">
      <path
         d="m 171.62848,402.52695 v -2 h -2 -2 v -2 -2 h -2 -2 v -2 -2 h -2 -2 v 2 2 h -2 -2 v -2 -2 h -2 -2 v -2 -2 h -2 -2 v -2 -2 h -2 -2 v -16 -16 h 2 2 v -4 -4 h 4 4 v -2 -2 h 4 4 v -2 -2 h 6 6 v -2 -2 h 12 12 v -2 -2 h 6 6 v -2 -2 h 2 2 v -2 -2 h 6 6 v -2 -2 h 10 10 v -2 -2 h 12 12 v 2 2 h 6 6 v 2 2 h 4 4 v 2 2 h 4 4 v 2 2 h 2 2 v 2 2 h 14 14 v 2 2 h 2 2 v 2 2 h 2 2 v 2 2 h 2 2 v 2 2 h 2 2 v 6 6 h 2 2 v 10 10 h -2 -2 v 2 2 h -2 -2 v 2 2 h -2 -2 v 2 2 h -4 -4 v 2 2 h -2 -2 v 2 2 h -2 -2 v 2 2 h -8 -8 v -2 -2 h -2 -2 v -2 -2 h -2 -2 v -2 -2 h -2 -2 v 2 2 h -48 -48 v -2 -2 h -2 -2 v 2 2 h -2 -2 v 2 2 h -2 -2 v 2 2 h -8 -8 z"
         id="path3271"
         style="fill:#00f6f6" />
      <path
         d="m 171.62848,402.52695 v -2 h -2 -2 v -2 -2 h -2 -2 v -2 -2 h -2 -2 v 2 2 h -2 -2 v -2 -2 h -2 -2 v -2 -2 h -2 -2 v -2 -2 h -2 -2 v -16 -16 h 2 2 v -4 -4 h 4 4 v -2 -2 h 4 4 v -2 -2 h 6 6 v -2 -2 h 12 12 v -2 -2 h 6 6 v -2 -2 h 2 2 v -2 -2 h 6 6 v -2 -2 h 10 10 v -2 -2 h 12 12 v 2 2 h 6 6 v 2 2 h 4 4 v 2 2 h 4 4 v 2 2 h 2 2 v 2 2 h 14 14 v 2 2 h 2 2 v 2 2 h 2 2 v 2 2 h 2 2 v 2 2 h 2 2 v 6 6 h 2 2 v 10 10 h -2 -2 v 2 2 h -2 -2 v 2 2 h -2 -2 v 2 2 h -4 -4 v 2 2 h -2 -2 v 2 2 h -2 -2 v 2 2 h -8 -8 v -2 -2 h -2 -2 v -2 -2 h -2 -2 v -2 -2 h -2 -2 v 2 2 h -48 -48 v -2 -2 h -2 -2 v 2 2 h -2 -2 v 2 2 h -2 -2 v 2 2 h -8 -8 z m 12,-10 v -4 h -4 -4 v 4 4 h 4 4 z m 136,0 v -4 h -4 -4 v 4 4 h 4 4 z m -44,-34 v -2 h 4 4 v -4 -4 h -2 -2 v 2 2 h -4 -4 v 4 4 h 2 2 z m -28,-4 v -2 h 2 2 v -2 -2 h -4 -4 v 2 2 h -4 -4 v 2 2 h 6 6 z m -40,-12 v -2 h 4 4 v -2 -2 h 2 2 v -2 -2 h -2 -2 v 2 2 h -4 -4 v 2 2 h -2 -2 v 2 2 h 2 2 z m 100,0 v -2 h -2 -2 v -2 -2 h -2 -2 v -2 -2 h -2 -2 v 2 2 h 2 2 v 2 2 h 2 2 v 2 2 h 2 2 z"
         id="path3269"
         style="fill:#00f1f1" />
      <path
         d="m 171.62848,402.52695 v -2 h -2 -2 v -2 -2 h -2 -2 v -2 -2 h -2 -2 v 2 2 h -2 -2 v -2 -2 h -2 -2 v -2 -2 h -2 -2 v -2 -2 h -2 -2 v -16 -16 h 2 2 v -4 -4 h 4 4 v -2 -2 h 4 4 v -2 -2 h 6 6 v -2 -2 h 12 12 v -2 -2 h 6 6 v -2 -2 h 2 2 v -2 -2 h 6 6 v -2 -2 h 10 10 v -2 -2 h 12 12 v 2 2 h 6 6 v 2 2 h 4 4 v 2 2 h 4 4 v 2 2 h 2 2 v 2 2 h 14 14 v 2 2 h 2 2 v 2 2 h 2 2 v 2 2 h 2 2 v 2 2 h 2 2 v 6 6 h 2 2 v 10 10 h -2 -2 v 2 2 h -2 -2 v 2 2 h -2 -2 v 2 2 h -4 -4 v 2 2 h -2 -2 v 2 2 h -2 -2 v 2 2 h -8 -8 v -2 -2 h -2 -2 v -2 -2 h -2 -2 v -2 -2 h -2 -2 v 2 2 h -48 -48 v -2 -2 h -2 -2 v 2 2 h -2 -2 v 2 2 h -2 -2 v 2 2 h -8 -8 z m 12,-10 v -4 h -4 -4 v 4 4 h 4 4 z m 136,0 v -4 h -4 -4 v 4 4 h 4 4 z m -60,-34 v -6 h 2 2 v 6 6 h 16 16 v -2 -2 h 4 4 v -4 -4 h 2 2 v 4 4 h 2 2 v 2 2 h 2 2 v -6 -6 h -2 -2 v -4 -4 h -2 -2 v -2 -2 h -2 -2 v -4 -4 h -2 -2 v -2 -2 h -4 -4 v 6 6 h 2 2 v 2 2 h 2 2 v 2 2 h -4 -4 v -2 -2 h -12 -12 v 4 4 h -2 -2 v -4 -4 h -10 -10 v 2 2 h -4 -4 v 2 2 h -4 -4 v 4 4 h -4 -4 v 2 2 h 20 20 z m 40,-8 v -2 h 2 2 v 2 2 h -2 -2 z m -92,8 v -2 h 2 2 v -2 -2 h 4 4 v -2 -2 h 2 2 v -2 -2 h 2 2 v -2 -2 h -2 -2 v -8 -8 h -4 -4 v 2 2 h -2 -2 v 2 2 h -6 -6 v 4 4 h -2 -2 v 8 8 h 2 2 v 2 2 h 4 4 z"
         id="path3267"
         style="fill:#00cfcf" />
      <path
         d="m 171.62848,402.52695 v -2 h -2 -2 v -2 -2 h -2 -2 v -2 -2 h -2 -2 v 2 2 h -2 -2 v -2 -2 h -2 -2 v -2 -2 h -2 -2 v -2 -2 h -2 -2 v -16 -16 h 2 2 v -4 -4 h 4 4 v -2 -2 h 4 4 v -2 -2 h 6 6 v -2 -2 h 12 12 v -2 -2 h 6 6 v -2 -2 h 2 2 v -2 -2 h 6 6 v -2 -2 h 10 10 v -2 -2 h 12 12 v 2 2 h 6 6 v 2 2 h 4 4 v 2 2 h 4 4 v 2 2 h 2 2 v 2 2 h 14 14 v 2 2 h 2 2 v 2 2 h 2 2 v 2 2 h 2 2 v 2 2 h 2 2 v 6 6 h 2 2 v 10 10 h -2 -2 v 2 2 h -2 -2 v 2 2 h -2 -2 v 2 2 h -4 -4 v 2 2 h -2 -2 v 2 2 h -2 -2 v 2 2 h -8 -8 v -2 -2 h -2 -2 v -2 -2 h -2 -2 v -2 -2 h -2 -2 v 2 2 h -48 -48 v -2 -2 h -2 -2 v 2 2 h -2 -2 v 2 2 h -2 -2 v 2 2 h -8 -8 z m 12,-10 v -4 h -4 -4 v 4 4 h 4 4 z m 136,0 v -4 h -4 -4 v 4 4 h 4 4 z m -60,-32 v -8 h 2 2 v 8 8 h 16 16 v -2 -2 h 2 2 v -2 -2 h 2 2 v -4 -4 h 2 2 v 4 4 h 2 2 v 2 2 h 2 2 v -6 -6 h -2 -2 v -4 -4 h -2 -2 v -2 -2 h -2 -2 v -4 -4 h -2 -2 v -2 -2 h -4 -4 v 6 6 h 2 2 v 2 2 h 2 2 v 2 2 h -4 -4 v -2 -2 h -12 -12 v 4 4 h -2 -2 v -4 -4 h -10 -10 v 2 2 h -4 -4 v 2 2 h -4 -4 v -2 -2 h 2 2 v -2 -2 h -2 -2 v -2 -2 h -2 -2 v -8 -8 h -4 -4 v 2 2 h -2 -2 v 2 2 h -6 -6 v 4 4 h -2 -2 v 8 8 h 2 2 v 2 2 h 2 2 v 2 2 h 4 4 v -2 -2 h 4 4 v 2 2 h 2 2 v 2 2 h 18 18 z m -40,-2 v -2 h 2 2 v -2 -2 h 2 2 v 4 4 h -4 -4 z m 80,-8 v -2 h 2 2 v 2 2 h -2 -2 z"
         id="path3265"
         style="fill:#00715c" />
      <path
         d="m 171.62848,402.52695 v -2 h -2 -2 v -2 -2 h -2 -2 v -2 -2 h -2 -2 v 2 2 h -2 -2 v -2 -2 h -2 -2 v -2 -2 h -2 -2 v -2 -2 h -2 -2 v -16 -16 h 2 2 v -4 -4 h 4 4 v -2 -2 h 4 4 v -2 -2 h 6 6 v -2 -2 h 12 12 v -2 -2 h 6 6 v -2 -2 h 2 2 v -2 -2 h 6 6 v -2 -2 h 10 10 v -2 -2 h 12 12 v 2 2 h 6 6 v 2 2 h 4 4 v 2 2 h 4 4 v 2 2 h 2 2 v 2 2 h 14 14 v 2 2 h 2 2 v 2 2 h 2 2 v 2 2 h 2 2 v 2 2 h 2 2 v 6 6 h 2 2 v 10 10 h -2 -2 v 2 2 h -2 -2 v 2 2 h -2 -2 v 2 2 h -4 -4 v 2 2 h -2 -2 v 2 2 h -2 -2 v 2 2 h -8 -8 v -2 -2 h -2 -2 v -2 -2 h -2 -2 v -2 -2 h -2 -2 v 2 2 h -48 -48 v -2 -2 h -2 -2 v 2 2 h -2 -2 v 2 2 h -2 -2 v 2 2 h -8 -8 z m 12,-10 v -4 h -4 -4 v 4 4 h 4 4 z m 136,0 v -4 h -4 -4 v 4 4 h 4 4 z m -60,-32 v -8 h 2 2 v 8 8 h 16 16 v -2 -2 h 2 2 v -2 -2 h 2 2 v -4 -4 h 2 2 v 4 4 h 2 2 v 2 2 h 2 2 v -6 -6 h -2 -2 v -4 -4 h 8 8 v 2 2 h 6 6 v -2 -2 h -2 -2 v -2 -2 h -2 -2 v -2 -2 h -12 -12 v 2 2 h -2 -2 v -4 -4 h -2 -2 v -2 -2 h -4 -4 v 6 6 h 2 2 v 2 2 h 2 2 v 2 2 h -4 -4 v -2 -2 h -12 -12 v 4 4 h -2 -2 v -4 -4 h -10 -10 v 2 2 h -4 -4 v 2 2 h -4 -4 v -2 -2 h 2 2 v -2 -2 h -2 -2 v -2 -2 h -2 -2 v -8 -8 h -4 -4 v 2 2 h -2 -2 v 2 2 h -6 -6 v 4 4 h -2 -2 v -2 -2 h -10 -10 v 2 2 h -6 -6 v 2 2 h -4 -4 v 2 2 h -2 -2 v 2 2 h -2 -2 v 4 4 h 2 2 v -2 -2 h 2 2 v -2 -2 h 4 4 v -2 -2 h 4 4 v -2 -2 h 10 10 v -2 -2 h 2 2 v 8 8 h 2 2 v 2 2 h 2 2 v 2 2 h 4 4 v -2 -2 h 4 4 v 2 2 h 2 2 v 2 2 h 18 18 z m -40,-2 v -2 h 2 2 v -2 -2 h 2 2 v 4 4 h -4 -4 z m 80,-8 v -2 h 2 2 v 2 2 h -2 -2 z m 8,-8 v -2 h 2 2 v 2 2 h -2 -2 z m -76,-12 v -2 h 2 2 v -2 -2 h 18 18 v 2 2 h 6 6 v 2 2 h 2 2 v -4 -4 h -2 -2 v -2 -2 h -6 -6 v -2 -2 h -12 -12 v 2 2 h -10 -10 v 6 6 h 2 2 z"
         id="path3263"
         style="fill:#003e29" />
      <path
         d="m 171.62848,402.52695 v -2 h -2 -2 v -2 -2 h -2 -2 v -2 -2 h -2 -2 v 2 2 h -2 -2 v -2 -2 h -2 -2 v -2 -2 h -2 -2 v -2 -2 h -2 -2 v -16 -16 h 2 2 v -4 -4 h 4 4 v -2 -2 h 4 4 v -2 -2 h 6 6 v -2 -2 h 12 12 v -2 -2 h 6 6 v -2 -2 h 2 2 v -2 -2 h 6 6 v -2 -2 h 10 10 v -2 -2 h 12 12 v 2 2 h 6 6 v 2 2 h 4 4 v 2 2 h 4 4 v 2 2 h 2 2 v 2 2 h 14 14 v 2 2 h 2 2 v 2 2 h 2 2 v 2 2 h 2 2 v 2 2 h 2 2 v 6 6 h 2 2 v 10 10 h -2 -2 v 2 2 h -2 -2 v 2 2 h -2 -2 v 2 2 h -4 -4 v 2 2 h -2 -2 v 2 2 h -2 -2 v 2 2 h -8 -8 v -2 -2 h -2 -2 v -2 -2 h -2 -2 v -2 -2 h -2 -2 v 2 2 h -48 -48 v -2 -2 h -2 -2 v 2 2 h -2 -2 v 2 2 h -2 -2 v 2 2 h -8 -8 z m 12,-10 v -4 h -4 -4 v 4 4 h 4 4 z m 136,0 v -4 h -4 -4 v 4 4 h 4 4 z m -152,-6 v -2 h 18 18 v -2 -2 h 2 2 v 2 2 h 22 22 v -2 -2 h 2 2 v 2 2 h 24 24 v -2 -2 h 2 2 v 2 2 h 18 18 v -2 -2 h 2 2 v -10 -10 h -2 -2 v 2 2 h -4 -4 v 2 2 h -12 -12 v -2 -2 h 2 2 v -6 -6 h 2 2 v 4 4 h 8 8 v -2 -2 h 2 2 v -2 -2 h 2 2 v -2 -2 h -2 -2 v -2 -2 h -2 -2 v -2 -2 h -2 -2 v -2 -2 h -12 -12 v 2 2 h -2 -2 v -4 -4 h -2 -2 v -2 -2 h -4 -4 v 6 6 h 2 2 v 2 2 h 2 2 v 2 2 h -4 -4 v -2 -2 h -12 -12 v 4 4 h -2 -2 v -4 -4 h -10 -10 v 2 2 h -4 -4 v 2 2 h -4 -4 v -2 -2 h 2 2 v -2 -2 h -2 -2 v -2 -2 h 6 6 v -2 -2 h 24 24 v -6 -6 h -2 -2 v -2 -2 h -6 -6 v -2 -2 h -12 -12 v 2 2 h -10 -10 v 10 10 h -2 -2 v -8 -8 h -4 -4 v 2 2 h -2 -2 v 2 2 h -6 -6 v 4 4 h -2 -2 v -2 -2 h -10 -10 v 2 2 h -6 -6 v 2 2 h -4 -4 v 2 2 h -2 -2 v 2 2 h -2 -2 v 8 8 h 2 2 v 2 2 h -2 -2 v 6 6 h 4 4 v 2 2 h 6 6 z m -12,-8 v -2 h -2 -2 v -2 -2 h 14 14 v -2 -2 h 8 8 v -2 -2 h 2 2 v -2 -2 h -2 -2 v -2 -2 h -2 -2 v -8 -8 h 2 2 v 8 8 h 2 2 v 2 2 h 2 2 v 2 2 h 4 4 v -2 -2 h 4 4 v -2 -2 h 2 2 v -2 -2 h 2 2 v 4 4 h -4 -4 v 2 2 h 2 2 v 2 2 h 18 18 v -8 -8 h 2 2 v 8 8 h 16 16 v -2 -2 h 2 2 v -2 -2 h 2 2 v -4 -4 h -2 -2 v -2 -2 h 2 2 v 2 2 h 2 2 v 4 4 h 2 2 v 2 2 h -2 -2 v -2 -2 h -2 -2 v 2 2 h -2 -2 v 2 2 h 6 6 v 2 2 h -4 -4 v 4 4 h -2 -2 v -4 -4 h -20 -20 v 4 4 h -2 -2 v -4 -4 h -18 -18 v 2 2 h -2 -2 v -2 -2 h -2 -2 v 4 4 h -2 -2 v -2 -2 h -10 -10 v 2 2 h -16 -16 z m 64,-10 v -4 h -2 -2 v 4 4 h 2 2 z m 20,10 v -2 h 4 4 v 2 2 h -4 -4 z m 48,0 v -2 h 4 4 v 2 2 h -4 -4 z m -132,-24 v -2 h 2 2 v 2 2 h -2 -2 z m 8,-4 v -2 h 2 2 v 2 2 h -2 -2 z m 148,-2 v -4 h -2 -2 v -2 -2 h 2 2 v 2 2 h 2 2 v 4 4 h -2 -2 z m -140,-2 v -2 h 6 6 v 2 2 h -6 -6 z"
         id="path3261"
         style="fill:#003520" />
      <path
         d="m 171.62848,402.52695 v -2 h -2 -2 v -2 -2 h -2 -2 v -2 -2 h -2 -2 v 2 2 h -2 -2 v -2 -2 h -2 -2 v -2 -2 h -2 -2 v -2 -2 h -2 -2 v -16 -16 h 2 2 v -4 -4 h 4 4 v -2 -2 h 4 4 v -2 -2 h 6 6 v -2 -2 h 12 12 v -2 -2 h 6 6 v -2 -2 h 2 2 v -2 -2 h 6 6 v -2 -2 h 10 10 v -2 -2 h 12 12 v 2 2 h 6 6 v 2 2 h 4 4 v 2 2 h 4 4 v 2 2 h 2 2 v 2 2 h 14 14 v 2 2 h 2 2 v 2 2 h 2 2 v 2 2 h 2 2 v 2 2 h 2 2 v 6 6 h 2 2 v 10 10 h -2 -2 v 2 2 h -2 -2 v 2 2 h -2 -2 v 2 2 h -4 -4 v 2 2 h -2 -2 v 2 2 h -2 -2 v 2 2 h -8 -8 v -2 -2 h -2 -2 v -2 -2 h -2 -2 v -2 -2 h -2 -2 v 2 2 h -48 -48 v -2 -2 h -2 -2 v 2 2 h -2 -2 v 2 2 h -2 -2 v 2 2 h -8 -8 z m 12,-10 v -4 h -4 -4 v 4 4 h 4 4 z m 136,0 v -4 h -4 -4 v 4 4 h 4 4 z m -152,-6 v -2 h 18 18 v -2 -2 h 2 2 v 2 2 h 22 22 v -2 -2 h 2 2 v 2 2 h 24 24 v -2 -2 h 2 2 v 2 2 h 18 18 v -2 -2 h 2 2 v -10 -10 h -2 -2 v 2 2 h -4 -4 v 2 2 h -12 -12 v -2 -2 h 2 2 v -6 -6 h 2 2 v 4 4 h 8 8 v -2 -2 h 2 2 v -2 -2 h 2 2 v -2 -2 h -2 -2 v -2 -2 h -2 -2 v -2 -2 h -2 -2 v -2 -2 h -12 -12 v 2 2 h -2 -2 v -4 -4 h -2 -2 v -2 -2 h -4 -4 v 6 6 h 2 2 v 2 2 h 2 2 v 2 2 h -4 -4 v -2 -2 h -12 -12 v 4 4 h -2 -2 v -4 -4 h -10 -10 v 2 2 h -4 -4 v 2 2 h -4 -4 v -2 -2 h 2 2 v -2 -2 h -2 -2 v -2 -2 h 6 6 v -2 -2 h 24 24 v -6 -6 h -2 -2 v -2 -2 h -6 -6 v -2 -2 h -12 -12 v 2 2 h -10 -10 v 10 10 h -2 -2 v -8 -8 h -4 -4 v 2 2 h -2 -2 v 2 2 h -6 -6 v 4 4 h -2 -2 v -2 -2 h -10 -10 v 2 2 h -6 -6 v 2 2 h -4 -4 v 2 2 h -2 -2 v 2 2 h -2 -2 v 8 8 h 2 2 v 2 2 h -2 -2 v 6 6 h 4 4 v 2 2 h 6 6 z m -12,-8 v -2 h -2 -2 v -2 -2 h 14 14 v -2 -2 h 8 8 v -2 -2 h 2 2 v -2 -2 h -2 -2 v -2 -2 h -2 -2 v -8 -8 h 2 2 v 8 8 h 2 2 v 2 2 h 2 2 v 2 2 h 4 4 v -2 -2 h 4 4 v -2 -2 h 2 2 v -2 -2 h 2 2 v 4 4 h -4 -4 v 2 2 h 2 2 v 2 2 h 18 18 v -8 -8 h 2 2 v 8 8 h 16 16 v -2 -2 h 2 2 v -2 -2 h 2 2 v -4 -4 h -2 -2 v -2 -2 h 2 2 v 2 2 h 2 2 v 4 4 h 2 2 v 2 2 h -2 -2 v -2 -2 h -2 -2 v 2 2 h -2 -2 v 2 2 h 6 6 v 2 2 h -4 -4 v 4 4 h -2 -2 v -4 -4 h -20 -20 v 4 4 h -2 -2 v -4 -4 h -18 -18 v 2 2 h -2 -2 v -2 -2 h -2 -2 v 4 4 h -2 -2 v -2 -2 h -10 -10 v 2 2 h -16 -16 z m 64,-10 v -4 h -2 -2 v 4 4 h 2 2 z m 20,10 v -2 h 4 4 v 2 2 h -4 -4 z m 48,0 v -2 h 4 4 v 2 2 h -4 -4 z m 24,-30 v -4 h -2 -2 v -2 -2 h 2 2 v 2 2 h 2 2 v 4 4 h -2 -2 z"
         id="path3259"
         style="fill:#002d1f" />
      <path
         d="m 171.62848,402.52695 v -2 h -2 -2 v -2 -2 h -2 -2 v -2 -2 h -2 -2 v 2 2 h -2 -2 v -2 -2 h -2 -2 v -2 -2 h -2 -2 v -2 -2 h -2 -2 v -16 -16 h 2 2 v -4 -4 h 4 4 v -2 -2 h 4 4 v -2 -2 h 6 6 v -2 -2 h 12 12 v -2 -2 h 6 6 v -2 -2 h 2 2 v -2 -2 h 6 6 v -2 -2 h 10 10 v -2 -2 h 12 12 v 2 2 h 6 6 v 2 2 h 4 4 v 2 2 h 4 4 v 2 2 h 2 2 v 2 2 h 14 14 v 2 2 h 2 2 v 2 2 h 2 2 v 2 2 h 2 2 v 2 2 h 2 2 v 6 6 h 2 2 v 10 10 h -2 -2 v 2 2 h -2 -2 v 2 2 h -2 -2 v 2 2 h -4 -4 v 2 2 h -2 -2 v 2 2 h -2 -2 v 2 2 h -8 -8 v -2 -2 h -2 -2 v -2 -2 h -2 -2 v -2 -2 h -2 -2 v 2 2 h -48 -48 v -2 -2 h -2 -2 v 2 2 h -2 -2 v 2 2 h -2 -2 v 2 2 h -8 -8 z m 12,-10 v -4 h -4 -4 v 4 4 h 4 4 z m 136,0 v -4 h -4 -4 v 4 4 h 4 4 z m -152,-6 v -2 h 12 12 v 2 2 h 6 6 v -4 -4 h 2 2 v 4 4 h 22 22 v -4 -4 h 2 2 v 4 4 h 24 24 v -4 -4 h 2 2 v 2 2 h 18 18 v -2 -2 h 2 2 v -10 -10 h -2 -2 v -6 -6 h -2 -2 v -2 -2 h -2 -2 v -2 -2 h -2 -2 v -2 -2 h -12 -12 v 2 2 h -2 -2 v -4 -4 h -2 -2 v -2 -2 h -4 -4 v 6 6 h 2 2 v 2 2 h 2 2 v 2 2 h -4 -4 v -2 -2 h -12 -12 v 4 4 h -2 -2 v -4 -4 h -10 -10 v -2 -2 h 22 22 v -8 -8 h -2 -2 v -2 -2 h -6 -6 v -2 -2 h -12 -12 v 2 2 h -10 -10 v 10 10 h -2 -2 v -8 -8 h -4 -4 v 2 2 h -2 -2 v 2 2 h -6 -6 v 4 4 h -2 -2 v -2 -2 h -10 -10 v 2 2 h -6 -6 v 2 2 h -4 -4 v 2 2 h -2 -2 v 2 2 h -2 -2 v 8 8 h 2 2 v 2 2 h -2 -2 v 6 6 h 4 4 v 2 2 h 6 6 z m -12,-8 v -2 h -2 -2 v -2 -2 h 2 2 v 2 2 h 16 16 v -2 -2 h 12 12 v -2 -2 h -4 -4 v -2 -2 h -2 -2 v -2 -2 h -2 -2 v -2 -2 h -2 -2 v -8 -8 h 2 2 v 8 8 h 2 2 v 2 2 h 2 2 v 2 2 h 4 4 v -2 -2 h 4 4 v -2 -2 h 2 2 v -2 -2 h 2 2 v -2 -2 h 2 2 v -2 -2 h -2 -2 v -2 -2 h 2 2 v 2 2 h 6 6 v 2 2 h -4 -4 v 2 2 h -4 -4 v 4 4 h -4 -4 v 2 2 h 2 2 v 2 2 h 18 18 v -8 -8 h 2 2 v 8 8 h 16 16 v -2 -2 h 2 2 v -2 -2 h 2 2 v -4 -4 h -2 -2 v -2 -2 h 2 2 v 2 2 h 2 2 v 4 4 h 2 2 v 2 2 h 2 2 v -6 -6 h -2 -2 v -4 -4 h -2 -2 v -2 -2 h 2 2 v 2 2 h 2 2 v 4 4 h 2 2 v 6 6 h 8 8 v -2 -2 h 4 4 v 2 2 h -4 -4 v 2 2 h -12 -12 v 2 2 h -4 -4 v 4 4 h -2 -2 v -4 -4 h -20 -20 v 4 4 h -2 -2 v -4 -4 h -18 -18 v 2 2 h -2 -2 v -2 -2 h -2 -2 v 4 4 h -2 -2 v -2 -2 h -10 -10 v 2 2 h -16 -16 z m 64,-10 v -4 h -2 -2 v 4 4 h 2 2 z m 92,-2 v -2 h -2 -2 v -2 -2 h -2 -2 v 2 2 h -2 -2 v 2 2 h 6 6 z m -72,12 v -2 h 4 4 v 2 2 h -4 -4 z m 48,0 v -2 h 4 4 v 2 2 h -4 -4 z"
         id="path3257"
         style="fill:#000200" />
      <path
         d="m 171.62848,402.52695 v -2 h -2 -2 v -2 -2 h -2 -2 v -2 -2 h -2 -2 v 2 2 h -2 -2 v -2 -2 h -2 -2 v -2 -2 h -2 -2 v -2 -2 h -2 -2 v -16 -16 h 2 2 v -4 -4 h 4 4 v -2 -2 h 4 4 v -2 -2 h 6 6 v -2 -2 h 12 12 v -2 -2 h 6 6 v -2 -2 h 2 2 v -2 -2 h 6 6 v -2 -2 h 10 10 v -2 -2 h 12 12 v 2 2 h 6 6 v 2 2 h 4 4 v 2 2 h 4 4 v 2 2 h 2 2 v 2 2 h 14 14 v 2 2 h 2 2 v 2 2 h 2 2 v 2 2 h 2 2 v 2 2 h 2 2 v 6 6 h 2 2 v 10 10 h -2 -2 v 2 2 h -2 -2 v 2 2 h -2 -2 v 2 2 h -4 -4 v 2 2 h -2 -2 v 2 2 h -2 -2 v 2 2 h -8 -8 v -2 -2 h -2 -2 v -2 -2 h -2 -2 v -2 -2 h -2 -2 v 2 2 h -48 -48 v -2 -2 h -2 -2 v 2 2 h -2 -2 v 2 2 h -2 -2 v 2 2 h -8 -8 z m 12,-10 v -4 h -4 -4 v 4 4 h 4 4 z m 136,0 v -4 h -4 -4 v 4 4 h 4 4 z m -152,-6 v -2 h 12 12 v 2 2 h 6 6 v -4 -4 h 2 2 v 4 4 h 22 22 v -4 -4 h 2 2 v 4 4 h 24 24 v -4 -4 h 2 2 v 2 2 h 10 10 v 2 2 h 6 6 v -2 -2 h 2 2 v -2 -2 h 2 2 v -10 -10 h -2 -2 v -6 -6 h -2 -2 v -2 -2 h -2 -2 v -2 -2 h -2 -2 v -2 -2 h -12 -12 v 2 2 h -2 -2 v -4 -4 h -2 -2 v -2 -2 h -4 -4 v 6 6 h 2 2 v 2 2 h 2 2 v 2 2 h -4 -4 v -2 -2 h -12 -12 v 4 4 h -2 -2 v -4 -4 h -10 -10 v -2 -2 h 22 22 v -8 -8 h -2 -2 v -2 -2 h -6 -6 v -2 -2 h -12 -12 v 2 2 h -10 -10 v 10 10 h -2 -2 v -8 -8 h -4 -4 v 2 2 h -2 -2 v 2 2 h -6 -6 v 4 4 h -2 -2 v -2 -2 h -10 -10 v 2 2 h -6 -6 v 2 2 h -4 -4 v 2 2 h -2 -2 v 2 2 h -2 -2 v 8 8 h 2 2 v 2 2 h -2 -2 v 6 6 h 2 2 v 2 2 h 8 8 z m -12,-8 v -2 h -2 -2 v -2 -2 h 2 2 v 2 2 h 16 16 v -2 -2 h 12 12 v -2 -2 h -4 -4 v -2 -2 h -2 -2 v -2 -2 h -2 -2 v -2 -2 h -2 -2 v -8 -8 h 2 2 v 8 8 h 2 2 v 2 2 h 2 2 v 2 2 h 4 4 v -2 -2 h 4 4 v -2 -2 h 2 2 v -2 -2 h 2 2 v -2 -2 h 2 2 v -2 -2 h -2 -2 v -2 -2 h 2 2 v 2 2 h 6 6 v 2 2 h -4 -4 v 2 2 h -4 -4 v 4 4 h -4 -4 v 2 2 h 2 2 v 2 2 h 18 18 v -8 -8 h 2 2 v 8 8 h 16 16 v -2 -2 h 2 2 v -2 -2 h 2 2 v -4 -4 h -2 -2 v -2 -2 h 2 2 v 2 2 h 2 2 v 4 4 h 2 2 v 2 2 h 2 2 v -6 -6 h -2 -2 v -4 -4 h -2 -2 v -2 -2 h 2 2 v 2 2 h 2 2 v 4 4 h 2 2 v 6 6 h 8 8 v -2 -2 h 4 4 v 2 2 h -4 -4 v 2 2 h -12 -12 v 2 2 h -4 -4 v 4 4 h -2 -2 v -4 -4 h -20 -20 v 4 4 h -2 -2 v -4 -4 h -18 -18 v 2 2 h -2 -2 v -2 -2 h -2 -2 v 4 4 h -2 -2 v -2 -2 h -10 -10 v 2 2 h -16 -16 z m 64,-10 v -4 h -2 -2 v 4 4 h 2 2 z m 92,-2 v -2 h -2 -2 v -2 -2 h -2 -2 v 2 2 h -2 -2 v 2 2 h 6 6 z m -72,12 v -2 h 4 4 v 2 2 h -4 -4 z m 48,0 v -2 h 4 4 v 2 2 h -4 -4 z"
         id="path3255"
         style="fill:#000000" />
      <path
         d="m 171.62848,402.52695 v -2 h -2 -2 v -2 -2 h -2 -2 v -2 -2 h -2 -2 v 2 2 h -2 -2 v -2 -2 h -2 -2 v -2 -2 h -2 -2 v -2 -2 h -2 -2 v -16 -16 h 2 2 v -4 -4 h 4 4 v -2 -2 h 4 4 v -2 -2 h 6 6 v -2 -2 h 12 12 v -2 -2 h 6 6 v -2 -2 h 2 2 v -2 -2 h 6 6 v -2 -2 h 10 10 v -2 -2 h 12 12 v 2 2 h 6 6 v 2 2 h 4 4 v 2 2 h 4 4 v 2 2 h 2 2 v 2 2 h 14 14 v 2 2 h 2 2 v 2 2 h 2 2 v 2 2 h 2 2 v 2 2 h 2 2 v 6 6 h 2 2 v 10 10 h -2 -2 v 2 2 h -2 -2 v 2 2 h -2 -2 v 2 2 h -4 -4 v 2 2 h -2 -2 v 2 2 h -2 -2 v 2 2 h -8 -8 v -2 -2 h -2 -2 v -2 -2 h -2 -2 v -2 -2 h -2 -2 v 2 2 h -48 -48 v -2 -2 h -2 -2 v 2 2 h -2 -2 v 2 2 h -2 -2 v 2 2 h -8 -8 z m 12,-10 v -4 h -4 -4 v 4 4 h 4 4 z m 136,0 v -4 h -4 -4 v 4 4 h 4 4 z m -160,-2 v -2 h 4 4 v -2 -2 h 12 12 v 2 2 h 4 4 v 2 2 h 2 2 v -6 -6 h 2 2 v 6 6 h 22 22 v -6 -6 h 2 2 v 6 6 h 20 20 v -2 -2 h 4 4 v -4 -4 h 2 2 v 2 2 h 10 10 v 2 2 h 6 6 v -2 -2 h 2 2 v -2 -2 h 2 2 v -10 -10 h -2 -2 v -6 -6 h -2 -2 v -2 -2 h -2 -2 v -2 -2 h -2 -2 v -2 -2 h -12 -12 v 2 2 h -2 -2 v -4 -4 h -2 -2 v -2 -2 h -4 -4 v 6 6 h 2 2 v 2 2 h 2 2 v 2 2 h -4 -4 v -2 -2 h -12 -12 v 4 4 h -2 -2 v -4 -4 h -10 -10 v -2 -2 h 22 22 v -8 -8 h -2 -2 v -2 -2 h -6 -6 v -2 -2 h -12 -12 v 2 2 h -10 -10 v 10 10 h -2 -2 v -8 -8 h -4 -4 v 2 2 h -2 -2 v 2 2 h -6 -6 v 4 4 h -2 -2 v -2 -2 h -10 -10 v 2 2 h -6 -6 v 2 2 h -4 -4 v 2 2 h -2 -2 v 2 2 h -2 -2 v 8 8 h 2 2 v 2 2 h -2 -2 v 6 6 h 2 2 v 2 2 h 2 2 v 2 2 h 2 2 z m -4,-12 v -2 h -2 -2 v -2 -2 h 2 2 v 2 2 h 16 16 v -2 -2 h 12 12 v -2 -2 h -4 -4 v -2 -2 h -2 -2 v -2 -2 h -2 -2 v -2 -2 h -2 -2 v -8 -8 h 2 2 v 8 8 h 2 2 v 2 2 h 2 2 v 2 2 h 4 4 v -2 -2 h 4 4 v -2 -2 h 2 2 v -2 -2 h 2 2 v -2 -2 h 2 2 v -2 -2 h -2 -2 v -2 -2 h 2 2 v 2 2 h 6 6 v 2 2 h -4 -4 v 2 2 h -4 -4 v 4 4 h -4 -4 v 2 2 h 2 2 v 2 2 h 18 18 v -8 -8 h 2 2 v 8 8 h 16 16 v -2 -2 h 2 2 v -2 -2 h 2 2 v -4 -4 h -2 -2 v -2 -2 h 2 2 v 2 2 h 2 2 v 4 4 h 2 2 v 2 2 h 2 2 v -6 -6 h -2 -2 v -4 -4 h -2 -2 v -2 -2 h 2 2 v 2 2 h 2 2 v 4 4 h 2 2 v 6 6 h 8 8 v -2 -2 h 4 4 v 2 2 h -4 -4 v 2 2 h -12 -12 v 2 2 h -4 -4 v 4 4 h -2 -2 v -4 -4 h -20 -20 v 4 4 h -2 -2 v -4 -4 h -18 -18 v 2 2 h -2 -2 v -2 -2 h -2 -2 v 4 4 h -2 -2 v -2 -2 h -10 -10 v 2 2 h -16 -16 z m 64,-10 v -4 h -2 -2 v 4 4 h 2 2 z m 92,-2 v -2 h -2 -2 v -2 -2 h -2 -2 v 2 2 h -2 -2 v 2 2 h 6 6 z m -72,12 v -2 h 4 4 v 2 2 h -4 -4 z m 48,0 v -2 h 4 4 v 2 2 h -4 -4 z"
         id="path3253"
         style="fill:#000000" />
    </g>
  </g>
</svg>
