<?xml version="1.0" encoding="UTF-8" standalone="no"?>
<svg
   xmlns:dc="http://purl.org/dc/elements/1.1/"
   xmlns:cc="http://creativecommons.org/ns#"
   xmlns:rdf="http://www.w3.org/1999/02/22-rdf-syntax-ns#"
   xmlns:svg="http://www.w3.org/2000/svg"
   xmlns="http://www.w3.org/2000/svg"
   xmlns:sodipodi="http://sodipodi.sourceforge.net/DTD/sodipodi-0.dtd"
   xmlns:inkscape="http://www.inkscape.org/namespaces/inkscape"
   width="120mm"
   height="200mm"
   viewBox="0 0 120 200"
   version="1.1"
   id="svg960"
   inkscape:version="1.0.2-2 (e86c870879, 2021-01-15)"
   sodipodi:docname="tree.svg">
  <defs
     id="defs954">
    <inkscape:path-effect
       effect="spiro"
       id="path-effect1044"
       is_visible="true"
       lpeversion="1" />
    <filter
       inkscape:menu="Shadows and Glows"
       inkscape:menu-tooltip="Cut out, add inner shadow and colorize some parts of an image"
       style="color-interpolation-filters:sRGB;"
       inkscape:label="Emergence"
       id="filter1252">
      <feColorMatrix
         values="0 0 0 0 0 0 0 0 0 0 0 0 0 0 0 0.21 0.72 0.07 0 0 "
         result="result1"
         id="feColorMatrix1224" />
      <feColorMatrix
         values="1 0 0 0 0 0 1 0 0 0 0 0 1 0 0 0 0 0 2 0 "
         result="result9"
         id="feColorMatrix1226" />
      <feComposite
         in2="result9"
         in="SourceGraphic"
         operator="in"
         result="result4"
         id="feComposite1228" />
      <feFlood
         result="result2"
         flood-color="rgb(0,0,0)"
         id="feFlood1230" />
      <feComposite
         in2="result9"
         operator="in"
         result="result10"
         id="feComposite1232" />
      <feComposite
         in2="result4"
         operator="atop"
         id="feComposite1234" />
      <feGaussianBlur
         stdDeviation="3"
         result="result8"
         id="feGaussianBlur1236" />
      <feOffset
         dx="3"
         dy="3"
         result="result3"
         in="result8"
         id="feOffset1238" />
      <feFlood
         flood-opacity="1"
         flood-color="rgb(219,173,62)"
         result="result5"
         id="feFlood1240" />
      <feMerge
         result="result6"
         id="feMerge1248">
        <feMergeNode
           in="result5"
           id="feMergeNode1242" />
        <feMergeNode
           in="result3"
           id="feMergeNode1244" />
        <feMergeNode
           in="result4"
           id="feMergeNode1246" />
      </feMerge>
      <feComposite
         in2="SourceGraphic"
         operator="in"
         result="result7"
         id="feComposite1250" />
    </filter>
  </defs>
  <sodipodi:namedview
     id="base"
     pagecolor="#ffffff"
     bordercolor="#666666"
     borderopacity="1.0"
     inkscape:pageopacity="0.0"
     inkscape:pageshadow="2"
     inkscape:zoom="0.7"
     inkscape:cx="164.83751"
     inkscape:cy="468.91682"
     inkscape:document-units="px"
     inkscape:current-layer="layer1"
     inkscape:document-rotation="0"
     showgrid="false"
     inkscape:window-width="1263"
     inkscape:window-height="1041"
     inkscape:window-x="156"
     inkscape:window-y="0"
     inkscape:window-maximized="0" />
  <metadata
     id="metadata957">
    <rdf:RDF>
      <cc:Work
         rdf:about="">
        <dc:format>image/svg+xml</dc:format>
        <dc:type
           rdf:resource="http://purl.org/dc/dcmitype/StillImage" />
        <dc:title></dc:title>
      </cc:Work>
    </rdf:RDF>
  </metadata>
  <g
     inkscape:label="Taso 1"
     inkscape:groupmode="layer"
     id="layer1">
    <rect
       style="fill:#552200;stroke:#00ce00;stroke-width:0.264583;stroke-opacity:0"
       id="rect988"
       width="13.607143"
       height="43.089287"
       x="56.237103"
       y="121.56505" />
    <path
       style="fill:#008000;stroke:#00ce00;stroke-width:0.376374;stroke-opacity:0;filter:url(#filter1252)"
       d="m 17.876309,150.49546 c -3.155838,-0.13259 -5.522716,-0.27594 -5.25973,-0.31855 0.262988,-0.0426 0.478157,-0.31896 0.478157,-0.61409 0,-0.29516 0.602478,-0.98152 1.338841,-1.52525 0.736363,-0.54373 1.33884,-1.22403 1.33884,-1.51176 0,-0.28774 0.215172,-0.60346 0.478158,-0.70162 0.262986,-0.0982 3.001073,-2.55095 6.084637,-5.45063 3.891358,-3.65931 6.57472,-6.57497 8.771519,-9.53086 1.740774,-2.34228 4.055907,-5.34189 5.144741,-6.66579 1.088832,-1.3239 2.463018,-3.24032 3.053742,-4.25871 0.590723,-1.01838 1.453975,-2.26822 1.918336,-2.7774 1.264799,-1.38692 5.280614,-9.72231 6.512078,-13.51676 0.825414,-2.5433 1.132151,-4.363915 1.294737,-7.684835 0.117189,-2.393562 0.136412,-4.351639 0.04273,-4.351283 -0.09368,2.59e-4 -0.610094,0.406244 -1.14758,0.901968 -1.118189,1.031306 -9.721022,3.905146 -15.120964,5.051267 -1.898859,0.403028 -4.141015,0.995876 -4.982572,1.317445 -1.124796,0.429795 -3.45531,0.634661 -8.798092,0.773399 l -7.267992,0.188732 2.103892,-2.107653 c 1.157141,-1.159207 2.837311,-2.528383 3.733713,-3.042617 0.896401,-0.514235 2.101358,-1.48752 2.677681,-2.162862 0.576323,-0.675337 2.163711,-1.83781 3.52753,-2.583272 2.730259,-1.492361 4.867142,-3.168291 10.33054,-8.102113 2.001121,-1.807148 4.843356,-4.216554 6.31608,-5.354243 2.351146,-1.816275 4.695477,-3.873164 6.963523,-6.109725 0.377848,-0.3726 1.309038,-1.289146 2.069312,-2.03677 0.760273,-0.747627 1.683289,-1.942573 2.051146,-2.655443 0.367855,-0.71287 1.309387,-2.046029 2.092287,-2.962575 0.782899,-0.916549 1.866704,-2.333029 2.408458,-3.147738 1.664669,-2.503391 4.843791,-11.947472 4.223857,-12.547626 -0.190823,-0.184737 -1.574013,0.694123 -4.698813,2.985551 -2.495377,1.829872 -5.569951,3.080603 -6.946547,2.825847 -0.543572,-0.100602 -1.51591,0.08123 -2.160749,0.40405 -0.644841,0.322818 -1.434449,0.489611 -1.754681,0.370645 -0.320234,-0.118963 -1.169308,-0.02874 -1.886833,0.200519 -1.450282,0.463365 -8.633547,1.121624 -14.793047,1.3556 -3.745786,0.14229 -3.921,0.118264 -2.599389,-0.356434 0.779424,-0.279954 2.328653,-1.304596 3.442734,-2.276985 1.114078,-0.972387 2.628075,-2.15579 3.364436,-2.629784 0.736363,-0.473993 2.250328,-1.864406 3.36437,-3.0898 1.114041,-1.225395 2.79237,-2.663059 3.729626,-3.194803 0.937255,-0.531743 1.7041,-1.122353 1.7041,-1.312461 0,-0.190111 0.513311,-0.882517 1.140693,-1.538681 2.447118,-2.559384 3.819973,-4.282409 5.966613,-7.488498 1.227348,-1.833094 2.99339,-4.332768 3.924536,-5.554829 0.931144,-1.222064 2.690846,-4.221672 3.910449,-6.665796 1.219608,-2.444126 2.944244,-5.527056 3.832535,-6.850958 0.888286,-1.323901 1.998883,-3.205434 2.467995,-4.181185 0.7543,-1.5689411 0.878556,-1.6759983 1.074577,-0.9258044 0.121907,0.4665577 1.195424,2.3480914 2.385593,4.1811854 1.190168,1.833093 3.243384,5.415958 4.562697,7.961922 1.319311,2.545964 3.156808,5.628894 4.083326,6.850957 0.926515,1.222061 2.503202,3.498623 3.503745,5.059024 1.000542,1.560403 2.370328,3.433449 3.043969,4.162329 0.673636,0.728879 2.160068,2.410134 3.303179,3.736122 1.143109,1.325989 2.234491,2.410887 2.425296,2.410887 0.1908,0 1.945565,1.458143 3.899474,3.240316 5.566517,5.077272 8.778312,7.644939 10.188562,8.145252 1.14509,0.406245 0.82202,0.443495 -2.716893,0.313262 -6.105897,-0.224698 -13.334299,-0.884769 -14.79305,-1.350838 -0.717523,-0.229252 -1.566596,-0.319482 -1.886832,-0.200519 -0.320232,0.118966 -1.059099,-0.02245 -1.641926,-0.314199 -0.582824,-0.291776 -1.742527,-0.52138 -2.577115,-0.510229 -1.482535,0.01981 -5.903914,-1.799231 -6.449159,-2.653309 -0.134466,-0.210628 -1.26589,-1.039753 -2.514281,-1.842504 l -2.269806,-1.459545 v 1.14846 c 0,1.245056 2.310895,8.084114 3.541798,10.481894 0.418232,0.814707 1.663996,2.564479 2.768368,3.888382 1.104366,1.3239 2.300275,2.963251 2.657574,3.643003 0.767573,1.460294 6.931035,7.414094 10.73234,10.367253 1.472724,1.144132 4.384389,3.64088 6.470364,5.54833 4.914915,4.494284 8.356428,7.155414 10.772938,8.330099 1.06824,0.519285 2.41228,1.540711 2.98673,2.269835 0.57446,0.729128 1.68001,1.644404 2.45678,2.033954 0.77678,0.389549 2.43974,1.721172 3.6955,2.959157 l 2.28317,2.250888 -5.15212,-0.01902 c -2.83367,-0.01045 -6.27101,-0.170352 -7.63854,-0.355312 -6.368529,-0.861359 -21.872738,-5.45628 -23.220094,-6.881651 -0.463284,-0.49011 -0.936661,-0.891108 -1.051946,-0.891108 -0.115283,0 -0.209613,1.647807 -0.209613,3.661792 0,2.865739 0.217513,4.375227 1.00054,6.943531 0.550292,1.80496 1.132377,3.81363 1.293519,4.46369 0.161143,0.65007 0.634072,1.60173 1.050952,2.11479 0.41688,0.51308 1.340991,2.30108 2.053579,3.97335 0.712584,1.67227 1.749505,3.48023 2.304264,4.01769 0.554762,0.53747 1.441028,1.80324 1.969482,2.81283 0.528457,1.00959 2.312338,3.52634 3.964186,5.59278 1.651839,2.06644 4.199945,5.34175 5.662443,7.27845 1.681883,2.22721 4.704308,5.39565 8.224308,8.62162 3.06087,2.80518 5.76684,5.44948 6.01328,5.87621 0.24644,0.42673 0.89195,1.00585 1.43447,1.28693 0.54252,0.28109 0.9864,0.7246 0.9864,0.98558 0,0.26097 0.27311,0.62246 0.60689,0.8033 0.37712,0.20432 -2.58954,0.41877 -7.8358,0.56644 -9.154978,0.25768 -11.326872,0.0466 -18.400316,-1.78864 -2.351073,-0.60999 -4.174176,-1.33785 -5.164098,-2.06176 -0.841557,-0.61541 -2.476854,-1.54338 -3.633996,-2.06215 -5.872667,-2.63286 -6.166813,-2.80853 -7.10028,-4.24005 l -0.942361,-1.44517 h -7.403621 -7.403623 l -1.007572,1.47397 c -1.043674,1.52678 -2.190375,2.2269 -6.283011,3.83609 -1.324042,0.5206 -2.959341,1.39716 -3.633996,1.9479 -1.629945,1.33058 -2.937229,1.82836 -8.239045,3.13723 -5.076869,1.25333 -9.267425,1.5033 -18.616833,1.11048 z"
       id="path990" />
  </g>
</svg>
